<svg width="26" height="20" viewBox="0 0 26 20" fill="none" xmlns="http://www.w3.org/2000/svg">
<path d="M1.5101 4.21714e-05C1.24221 4.21714e-05 0.985282 0.105399 0.795852 0.292936C0.606421 0.480472 0.5 0.734826 0.5 1.00004C0.5 1.26526 0.606421 1.51961 0.795852 1.70715C0.985282 1.89468 1.24221 2.00004 1.5101 2.00004H3.75253L6.40303 12.5C6.62828 13.39 7.43333 14 8.3596 14H20.9556C21.8677 14 22.6424 13.4 22.8818 12.53L25.5 3.00004H23.3849L20.9545 12H8.35859L5.70909 1.50004C5.59965 1.06927 5.34735 0.68732 4.9926 0.415356C4.63786 0.143391 4.20119 -0.00285293 3.75253 4.21714e-05H1.5101ZM19.6919 14C18.0303 14 16.6616 15.355 16.6616 17C16.6616 18.645 18.0303 20 19.6919 20C21.3535 20 22.7222 18.645 22.7222 17C22.7222 15.355 21.3535 14 19.6919 14ZM10.601 14C8.93939 14 7.57071 15.355 7.57071 17C7.57071 18.645 8.93939 20 10.601 20C12.2626 20 13.6313 18.645 13.6313 17C13.6313 15.355 12.2626 14 10.601 14ZM13.6313 4.21714e-05V5.00004H10.601L14.6414 9.00004L18.6818 5.00004H15.6515V4.21714e-05H13.6313ZM10.601 16C11.1707 16 11.6111 16.436 11.6111 17C11.6111 17.564 11.1707 18 10.601 18C10.0313 18 9.59091 17.564 9.59091 17C9.59091 16.436 10.0313 16 10.601 16ZM19.6919 16C20.2616 16 20.702 16.436 20.702 17C20.702 17.564 20.2616 18 19.6919 18C19.1222 18 18.6818 17.564 18.6818 17C18.6818 16.436 19.1222 16 19.6919 16Z" fill="#FFFBF5"/>
</svg>
